HIERARCHY
ROOT Hips
{
	OFFSET 0.000000 0.000000 0.000000
	CHANNELS 6 Xposition Yposition Zposition Zrotation Yrotation Xrotation 
	JOINT LeftUpLeg_virtual
	{
		OFFSET 0.000000 0.000000 0.000000
		CHANNELS 3 Zrotation Yrotation Xrotation
		JOINT LeftUpLeg
		{
			OFFSET 8.479694 -4.795517 -0.379053
			CHANNELS 3 Zrotation Yrotation Xrotation
			JOINT LeftLeg
			{
				OFFSET 0.485052 -32.551468 0.112863
				CHANNELS 3 Zrotation Yrotation Xrotation
				JOINT LeftFoot
				{
					OFFSET 0.438033 -32.635670 -3.012641
					CHANNELS 3 Zrotation Yrotation Xrotation
					JOINT LeftToeBase
					{
						OFFSET 0.970169 -13.225353 11.864223
						CHANNELS 3 Zrotation Yrotation Xrotation
						End Site
						{
							OFFSET 0.000000 0.000000 0.000000
						}
					}
				}
			}
		}
	}
	JOINT RightUpLeg_virtual
	{
		OFFSET 0.000000 0.000000 0.000000
		CHANNELS 3 Zrotation Yrotation Xrotation
		JOINT RightUpLeg
		{
			OFFSET -8.479694 -4.795517 -0.379053
			CHANNELS 3 Zrotation Yrotation Xrotation
			JOINT RightLeg
			{
				OFFSET -0.484100 -32.551483 0.112903
				CHANNELS 3 Zrotation Yrotation Xrotation
				JOINT RightFoot
				{
					OFFSET -0.438985 -32.635651 -3.012681
					CHANNELS 3 Zrotation Yrotation Xrotation
					JOINT RightToeBase
					{
						OFFSET -0.970169 -13.225354 11.864223
						CHANNELS 3 Zrotation Yrotation Xrotation
						End Site
						{
							OFFSET 0.000000 0.000000 0.000000
						}
					}
				}
			}
		}
	}
	JOINT Spine_virtual
	{
		OFFSET 0.000000 0.000000 0.000000
		CHANNELS 3 Zrotation Yrotation Xrotation
		JOINT Spine
		{
			OFFSET 0.000000 7.722015 1.166203
			CHANNELS 3 Zrotation Yrotation Xrotation
			JOINT Spine1
			{
				OFFSET 0.000000 12.024086 0.248766
				CHANNELS 3 Zrotation Yrotation Xrotation
				JOINT Spine2
				{
					OFFSET -0.000000 11.503036 -0.491240
					CHANNELS 3 Zrotation Yrotation Xrotation
					JOINT Neck_virtual
					{
						OFFSET 0.000000 0.000000 0.000000
						CHANNELS 3 Zrotation Yrotation Xrotation
						JOINT Neck
						{
							OFFSET 0.000000 18.430687 -3.123054
							CHANNELS 3 Zrotation Yrotation Xrotation
							JOINT Head
							{
								OFFSET -0.000000 9.051071 1.034021
								CHANNELS 3 Zrotation Yrotation Xrotation
								End Site
								{
									OFFSET 0.000000 0.000000 0.000000
								}
							}
						}
					}
					JOINT LeftShoulder_virtual
					{
						OFFSET 0.000000 0.000000 0.000000
						CHANNELS 3 Zrotation Yrotation Xrotation
						JOINT LeftShoulder
						{
							OFFSET 6.197824 13.665230 -4.064723
							CHANNELS 3 Zrotation Yrotation Xrotation
							JOINT LeftArm
							{
								OFFSET 7.778132 -0.187073 -1.709282
								CHANNELS 3 Zrotation Yrotation Xrotation
								JOINT LeftForeArm
								{
									OFFSET 21.954697 0.000000 -2.041093
									CHANNELS 3 Zrotation Yrotation Xrotation
									JOINT LeftHand
									{
										OFFSET 22.992908 0.000000 -0.870901
										CHANNELS 3 Zrotation Yrotation Xrotation
										End Site
										{
											OFFSET 0.000000 0.000000 0.000000
										}
									}
								}
							}
						}
					}
					JOINT RightShoulder_virtual
					{
						OFFSET 0.000000 0.000000 0.000000
						CHANNELS 3 Zrotation Yrotation Xrotation
						JOINT RightShoulder
						{
							OFFSET -6.197824 13.665230 -4.064723
							CHANNELS 3 Zrotation Yrotation Xrotation
							JOINT RightArm
							{
								OFFSET -7.778132 -0.187073 -1.709282
								CHANNELS 3 Zrotation Yrotation Xrotation
								JOINT RightForeArm
								{
									OFFSET -21.954697 0.000000 -2.041093
									CHANNELS 3 Zrotation Yrotation Xrotation
									JOINT RightHand
									{
										OFFSET -22.992908 0.000000 -0.870901
										CHANNELS 3 Zrotation Yrotation Xrotation
										End Site
										{
											OFFSET 0.000000 0.000000 0.000000
										}
									}
								}
							}
						}
					}
				}
			}
		}
	}
}
MOTION
Frames: 4
Frame Time: 0.033333
-12.021609 81.852356 62.688515 -179.866229 4.316870 -179.965554 -3.169356 -1.050229 11.130093 0.113782 1.406881 -24.464467 5.174783 4.432243 26.745592 -3.852109 -9.039968 -7.793423 0.000000 0.000000 0.000000 0.647002 -1.293835 10.397181 -3.057512 -4.879548 -18.466318 -0.086851 2.947191 31.509288 11.001638 11.050276 -11.091818 0.000000 0.000000 0.000000 4.272959 1.157751 1.548234 -5.724107 1.091423 -3.194078 0.786298 -3.306382 3.630465 0.026549 -0.024140 0.008144 0.518807 -2.255372 4.261138 0.406630 3.573467 -16.272412 0.000000 0.000000 0.000000 1.759990 -1.345325 1.628025 8.296560 3.354862 -4.749285 -13.298585 -5.418574 -33.386009 -7.449067 -13.306160 -1.562162 0.000000 0.000000 0.000000 -1.978172 -0.152165 1.048793 3.769478 -8.217175 -5.922296 16.921657 -11.505610 -36.027452 0.145793 28.915439 -7.404283 0.000000 0.000000 0.000000 
-12.058361 81.858421 62.726887 -179.855232 4.403654 -179.905311 -3.104287 -1.150615 11.055225 0.097377 1.186345 -24.461450 5.303300 4.430304 27.052139 -3.716921 -8.921842 -8.049134 0.000000 0.000000 0.000000 0.734797 -1.255301 10.495880 -2.900667 -4.855608 -18.345765 0.382754 3.256596 31.939303 11.602805 11.799046 -11.318727 0.000000 0.000000 0.000000 4.207822 1.180340 1.604852 -5.699597 1.092277 -3.131690 0.759202 -3.287644 3.610948 0.039693 -0.014501 0.014114 0.498982 -2.284324 4.230152 0.431947 3.474385 -16.246899 0.000000 0.000000 0.000000 1.772674 -1.339801 1.592808 8.330828 3.295326 -4.772661 -13.473264 -5.310642 -33.392515 -7.364160 -13.367265 -1.567137 0.000000 0.000000 0.000000 -1.963481 -0.111431 1.057860 3.784729 -8.245686 -6.041123 16.862043 -11.519822 -36.285216 0.381122 28.976722 -7.050699 0.000000 0.000000 0.000000 
-12.080888 81.860466 62.759121 -179.864603 4.434431 -179.905994 -3.106394 -1.228357 10.977664 0.093735 1.110303 -24.408820 5.304801 4.470689 27.024123 -3.653888 -8.841063 -8.023945 0.000000 0.000000 0.000000 0.725963 -1.279676 10.406373 -2.939968 -4.906353 -18.382016 0.417949 3.310632 32.086576 11.597309 11.776118 -11.351425 0.000000 0.000000 0.000000 4.174933 1.198087 1.676534 -5.677313 1.092326 -2.998578 0.734299 -3.275747 3.601934 0.039731 -0.008761 0.010746 0.513245 -2.264977 4.208437 0.471809 3.398044 -16.157096 0.000000 0.000000 0.000000 1.777442 -1.415443 1.526805 8.375150 3.157041 -5.002041 -13.707948 -5.024481 -33.455885 -7.295394 -13.483797 -1.490406 0.000000 0.000000 0.000000 -1.986715 -0.152673 0.935161 3.867181 -8.351958 -5.807948 16.963541 -11.560166 -36.365361 0.183624 29.199585 -7.176866 0.000000 0.000000 0.000000 
-12.074304 81.862228 62.770744 -179.904574 4.484876 -179.938656 -3.119595 -1.264035 10.934297 0.095375 1.027076 -24.383410 5.292796 4.508081 27.119847 -3.601433 -8.759993 -8.004971 0.000000 0.000000 0.000000 0.742256 -1.292194 10.328563 -3.009146 -4.929617 -18.425637 0.436392 3.403910 32.303349 11.577393 11.709157 -11.359201 0.000000 0.000000 0.000000 4.148817 1.198261 1.745151 -5.632422 1.071759 -2.874351 0.705618 -3.302159 3.571259 0.029390 -0.038993 -0.029187 0.532910 -2.230855 4.228909 0.519534 3.282128 -16.048115 0.000000 0.000000 0.000000 1.739335 -1.328202 1.544951 8.420536 3.089159 -4.796352 -14.033314 -4.892190 -33.340250 -7.086500 -13.588973 -1.338477 0.000000 0.000000 0.000000 -1.973662 -0.145394 0.977453 3.940251 -8.356319 -5.657465 16.971753 -11.521213 -36.422103 0.096211 29.409504 -7.070912 0.000000 0.000000 0.000000 
